<?xml version="1.0" encoding="UTF-8"?><svg id="Ebene_1" xmlns="http://www.w3.org/2000/svg" xmlns:xlink="http://www.w3.org/1999/xlink" viewBox="0 0 573 706"><defs><style>.cls-1,.cls-2{fill:none;}.cls-3{fill:#ffffff;}.cls-2{stroke:#ffffff;stroke-linecap:round;stroke-width:6px;}.cls-4{fill:#ffffff;}.cls-5{clip-path:url(#clippath);}</style><clipPath id="clippath"><rect class="cls-1" x="388.99" y="53.22" width="102.74" height="120.99"/></clipPath></defs><g class="cls-5"><path class="cls-2" d="M447.94,171.72s-41.37-81.99-54.71-63.38c-13.34,18.61,53.97,25.66,67.97-3.15,14.72-30.29-21.49-57.77-26.81-47.14-5.32,10.64,36.26,29.95,54.84,10.64"/></g><rect class="cls-3" x="94.31" y="339.29" width="92.32" height="20.52"/><rect class="cls-3" x="38" y="639.29" width="504" height="20.52"/><rect class="cls-3" x="241.77" y="254.66" width="92.32" height="20.52"/><rect class="cls-3" x="389.22" y="170.03" width="92.32" height="20.52"/><polygon class="cls-3" points="470.75 200.07 403.5 200.07 393.87 487.43 331.29 487.43 323.6 283.97 257.8 283.97 245.83 573.01 182.65 573.01 174.99 369.11 107.51 369.11 97.2 659.78 483.73 659.78 470.75 200.07"/><path class="cls-4" d="M259.76,232h55.59s.27-26.99-12.83-31c-13.09-4.01-31-1.87-37.41,12.03-6.41,13.9-5.34,18.97-5.34,18.97Z"/><path class="cls-4" d="M259.76,184.9h55.59s.27-26.99-12.83-31c-13.09-4.01-31-1.87-37.41,12.03-6.41,13.9-5.34,18.97-5.34,18.97Z"/><path class="cls-4" d="M259.76,137.8h55.59s.27-26.99-12.83-31c-13.09-4.01-31-1.87-37.41,12.03-6.41,13.9-5.34,18.97-5.34,18.97Z"/><polygon class="cls-4" points="133.73 268.65 128.38 228 140.66 228 140.66 267.39 161.46 232.73 171.86 239.97 143.19 275.26 182.26 264.87 182.26 278.1 144.76 279.67 182.26 299.53 172.17 307.4 140.35 282.51 150.43 315.28 140.35 318.43 133.73 283.14 115.46 316.86 104.74 309.29 127.12 280.62 92.14 284.09 92.14 269.91 127.43 275.89 95.61 248.8 106.63 238.71 133.73 268.65"/></svg>